<svg xmlns="http://www.w3.org/2000/svg" viewBox="0 0 1000 122.919">
  <g fill="#010101">
    <path d="M443.317.063c1.592.001 3.253-.266 4.786.292 2.096.616 4.303.649 6.468.867 3.774.295 7.559.497 11.348.422 172.407.003 342.643 0 515.053.003 4.599.049 9.214-.321 13.72-1.287.613-.078 1.306-.354 1.923-.034.938.885.532 2.314.729 3.454.525 4.778 1.566 7.743 2.556 12.434.163.968.197 2.092-.447 2.91-.638.727-1.95.521-2.289-.39-2.315-5.68-3.591-6.935-8.175-8.162-5.829-1.56-11.916-1.743-17.914-1.692-32.966.029-65.932-.051-98.897-.038-31.321-.053-62.643-.017-93.964-.068-33.942.015-67.881-.071-101.82-.037-23.177-.098-46.356.022-69.529-.073-37.998.023-75.999-.063-113.996-.036.015 16.23-.008 32.462.003 48.69.022 14.689-.064 28.873.224 43.56.149 4.34.139 8.711.875 13.007.357 2.082 1.426 4.36 3.637 5.012 2.802.753 5.742.712 8.613 1.004.986.074 1.557 1.346.963 2.122-.624.824-1.777.852-2.72.889a433.47 433.47 0 0 1-14.55-.306c-6.483-.369-12.968.495-19.457.278-.807-.047-1.811-.399-1.939-1.309-.248-.834.456-1.683 1.317-1.688 1.785-.136 3.591-.325 5.317-.827 1.404-.458 2.088-1.893 2.497-3.188.963-3.282 1.114-6.714 1.256-10.108.256-6.809.307-13.126.329-19.935.074-25.738.015-51.475.032-77.208-7.599.115-13.024.181-20.622.3-3.27.104-6.629.196-9.731 1.333a7.92 7.92 0 0 0-3.794 2.89 28.775 28.775 0 0 0-2.913 5.21c-.317.839-1.224 1.618-2.163 1.289-.917-.351-.919-1.492-.822-2.299.476-3.106 1.241-6.159 1.922-9.225.659-2.702 1.077-5.479 2.174-8.056zM54.073 4.8c8.57-.675 17.207-.322 25.696 1.066 4.3.605 8.508 1.795 12.839 2.18 1.692.2 3.388.307 5.086.429.853.075 1.894.38 2.19 1.326.165.933-.008 1.882-.091 2.813-.723 6.398-.829 12.852-.861 19.287-.041.829-.036 1.739-.483 2.465-.512.797-1.924.915-2.323-.053-.582-1.277-.442-2.748-.741-4.103-.687-3.618-2.011-7.333-4.73-9.851-3.154-3.016-7.141-4.899-11.168-6.313-8.136-2.747-16.802-3.406-25.306-2.987-3.792.163-7.56.764-11.235 1.721-5.848 1.614-11.304 4.634-15.956 8.62-6.328 5.676-9.995 13.884-11.836 22.198-1.98 9.269-2.055 19.007.066 28.254 1.889 8.213 5.325 16.076 10.237 22.834 2.593 3.632 5.936 6.612 9.413 9.305 4.727 3.581 10.019 6.368 15.619 8.151 6.287 1.98 12.916 2.729 19.472 2.347 4.004-.346 8.076-.76 11.851-2.275 1.153-.539 2.38-1.115 3.155-2.193.792-1.14.931-2.591.934-3.954-.003-8.545 0-17.097-.003-25.642-.048-2.686-.027-5.388-.453-8.047-.261-1.56-.781-3.234-2.118-4.16-2.431-1.726-5.478-1.927-8.334-2.001-.846.048-1.906-.507-1.777-1.521.023-1.066 1.187-1.48 2.057-1.488 4.002-.088 8.006.088 12.007.205 2.313.041 4.625.278 6.941.134 3.995-.177 7.989-.326 11.985-.396.856.007 1.75-.018 2.558.321.863.357 1.124 1.751.346 2.334-.749.594-1.763.384-2.638.546-1.792.258-3.808.438-5.161 1.835-1.397 1.488-1.645 3.665-1.853 5.632-.415 5.778-.344 11.57-.354 17.361 0 5.425-.003 10.845 0 16.27-.027 1.604.019 3.218-.178 4.814-.124.773-.297 1.614-.887 2.163-.744.696-1.694 1.079-2.592 1.513-3.006 1.513-6.212 2.55-9.438 3.438-12.477 3.238-25.613 3.285-38.239.949-10.466-1.997-20.648-6.279-28.951-13.251-4.486-3.669-8.097-8.386-10.966-13.479A62.186 62.186 0 0 1 .052 65.828c-.379-9.845 1.314-19.824 5.246-28.822 3.26-7.465 8.098-14.24 14.269-19.408 8.01-6.75 18.043-10.57 28.211-12.042 2.08-.4 4.193-.527 6.295-.756z"/>
    <path d="M715.363 22.968c-3.123.167-6.226.683-9.247 1.477-7.154 1.884-13.736 5.879-18.737 11.325-5.297 5.767-8.864 13.016-10.647 20.613-1.97 8.409-1.244 17.354 1.557 25.488 2.444 7.104 6.774 13.615 12.635 18.355 5.648 4.564 12.609 7.365 19.781 8.369 11.55 1.613 23.817-.842 33.288-7.819 9.396-6.925 15.348-17.962 16.859-29.454 1.034-7.882.495-16.106-2.37-23.567-1.813-4.725-4.581-9.094-8.121-12.716-3.729-3.813-8.294-6.78-13.241-8.76-6.877-2.757-14.385-3.706-21.757-3.311zm1.428 5.07v75.648l-.638-.088a29.533 29.533 0 0 1-2.444-.414l-.448-.095V28.324a33.165 33.165 0 0 1 3.53-.286zm-7.684 73.81c-8.02-3.005-14.231-9.044-17.938-16.714-3.98-8.24-5.26-17.602-4.602-26.672.55-7.58 3.374-14.601 8.227-20.454 3.723-4.487 8.758-7.409 14.367-8.875l.709-.185v73.185l-.763-.285zm18.742-72.254c4.113 1.374 7.775 3.63 10.878 6.656 4.896 4.781 8.603 11.091 10.227 17.744 1.679 6.892 1.854 14.083 1.031 21.107-.713 6.032-2.51 12.044-5.934 17.109-3.846 5.684-9.62 9.285-16.253 10.817l-.692.163V29.345l.743.249zm-4.657 74.153c-.81.067-1.624.108-2.438.115l-.573.007V28.097c.912-.024 2.614.171 3.53.438v75.172l-.519.04zM773.059 26.716c.14-.746.519-1.763 1.563-1.737 1.177.156 1.943 1.078 2.739 1.785a5556.459 5556.459 0 0 0 23.136 22.366c8.423 8.118 16.938 16.164 25.29 24.343 5.821 5.676 11.563 11.417 17.459 17.032-.403-16.052-.776-32.104-1.17-48.157-.143-3.15.055-6.348-.672-9.456-.298-1.346-1.146-2.708-2.647-3.218-2.201-.753-4.608-.663-6.914-.85-.926-.044-1.363-1.129-.861-1.767.712-.634 1.794-.608 2.736-.631 3.855-.007 7.707.199 11.563.288 4.019.058 8.067-.573 12.064-.123 1.356.164 1.248 1.965-.017 2.165-1.817.224-3.784.185-5.382 1.107-1.284.815-1.62 2.299-1.78 3.61-.393 3.506-.104 7.036-.233 10.554-.027 14.44-.115 28.881-.132 43.326-.092 5.486.044 10.979-.137 16.466-.125.984 0 2.137-.752 2.947-.78.481-1.746.037-2.387-.417-1.801-1.269-3.408-2.733-5.032-4.171-8.556-7.545-16.843-15.327-25.14-23.092-12.591-11.848-24.838-23.982-37.059-36.136.468 14.989.905 29.971 1.362 44.958.112 3.168.099 6.346.557 9.492.377 2.092.824 4.814 3.367 5.659 2.126.624 4.388.59 6.592.803.997.146 1.251 1.523.39 1.971-1.152.617-2.57.349-3.838.407-4.585.054-9.159-.499-13.733-.201-2.72.099-5.439.222-8.155.204-.732-.017-1.556-.051-2.075-.556-.634-.648-.173-1.849.841-1.855 1.95-.183 4.035-.121 5.813-.99 1.112-.719 1.468-2.004 1.746-3.143.454-2.415.458-4.869.529-7.312.051-19.935.074-39.867.125-59.804.03-1.952-.112-3.927.244-5.867zM950.638 23.646c5.689-.583 11.495-.183 17.069.962 1.374.312 2.808.292 4.201.515.841.224.851 1.11.79 1.747-.38 3.838-.424 7.692-.472 11.542-.067.809-.152 2.011-1.277 2.184-.855.044-1.489-.583-1.544-1.288-.305-1.836-.674-3.686-1.464-5.414-1.211-2.259-3.73-3.694-6.284-4.557-3.234-1.07-6.754-1.313-10.172-1.131-3.435.293-6.914 1.453-9.277 3.747-4.408 4.172-4.526 11.115-.739 15.649 3.041 3.67 7.09 6.554 10.989 9.474 5.165 3.652 10.495 7.197 14.812 11.665 3.429 3.466 6.205 7.615 6.951 12.234 1.313 6.195-.233 12.854-4.425 17.978-3.768 4.714-9.766 7.771-16.103 8.884-6.976 1.229-14.316.93-21.112-.932-1.532-.546-3.143-.983-4.533-1.78-1.052-.614-1.194-1.805-1.218-2.818-.044-3.76.149-7.523.496-11.274.128-1.051-.021-2.244.731-3.14.597-.776 2.259-.366 2.279.597.122 1.044.044 2.102.189 3.153.332 2.666 1.451 5.317 3.52 7.317 2.367 2.357 5.806 3.649 9.258 4.212 5.303.929 11.229.4 15.647-2.563 2.938-1.95 4.931-4.91 5.67-8.077.993-4.774-.406-9.929-3.974-13.651-7.67-8.098-18.752-13.134-25.767-21.78-3.514-4.093-5.348-9.231-5.128-14.364.041-4.95 2.174-9.949 6.273-13.378 3.936-3.34 9.259-5.136 14.614-5.713zM911.128 25.559c.867-.137 1.658-.697 2.573-.561 1.085.624.645 1.936.443 2.86-1 3.39-.786 6.911-1.271 10.359-.153.7-.424 1.673-1.388 1.77-.905.109-1.549-.69-1.546-1.406-.163-1.943-.156-4.271-2.034-5.622-1.978-1.231-4.507-1.438-6.84-1.712-5.51-.3-11.037-.215-16.551-.343-.196 7.46-.017 14.93-.078 22.393.024 2.633-.051 5.273.038 7.906 6.398-.008 12.804.049 19.198-.207 1.886-.198 4.165-.11 5.541-1.475.594-.493 1.082-1.237 1.967-1.356.688-.125 1.228.494 1.255 1.049.047.658-.122 1.306-.241 1.952-.885 4.004-.982 8.102-1.258 12.158-.075.746-.783 1.618-1.743 1.281-1.284-.358-.912-1.759-1.048-2.658-.111-1.379-.45-2.882-1.59-3.909-1.468-1.177-3.533-1.428-5.433-1.563-5.544-.305-11.095-.413-16.646-.478-.074 8.219-.037 16.441-.078 24.661.156 2.93-.298 6.138 1.533 8.755 1.732 1.927 4.812 2.046 7.385 2.266 4.438.139 8.922.244 13.326-.387 2.089-.318 4.266-1.058 5.568-2.604 1.187-1.432 1.698-3.185 2.067-4.896.163-.672.259-1.404.764-1.968.417-.528 1.488-.576 1.885.008.489.657.356 1.498.34 2.248a111.08 111.08 0 0 1-1.238 8.474c-.271 1.16-.521 2.39-1.376 3.344-.93.963-2.479 1.027-3.809 1.064a601.653 601.653 0 0 1-28.53-.495c-4.743-.258-9.484.196-14.225.189-1.078-.044-2.316.18-3.207-.461-.788-.543-.392-1.817.616-1.919 1.567-.237 3.231-.152 4.72-.726 1.123-.502 1.516-1.648 1.818-2.638.789-2.903.807-5.908.973-8.871.221-7.731.109-15.469.136-23.2-.007-9.054.007-18.107-.003-27.161-.034-2.852-.027-5.705-.33-8.545-.158-1.387-.647-2.941-2.095-3.713-2.034-1.099-4.507-1.046-6.799-1.193-.817-.029-1.465-.767-1.196-1.453.247-.761 1.305-.959 2.105-.958 4.642-.044 9.28.177 13.923.275 8.856-.005 17.71.037 26.563-.061 1.943-.058 3.91-.114 5.816-.473zM347.805 24.945c.642-.197 1.585-.682 2.064.032.569 1.075-.01 2.275-.204 3.374-.741 3.148-.568 6.394-.993 9.578-.129.778-.478 1.853-1.518 1.853-1-.063-1.387-1.068-1.353-1.863-.079-1.917-.276-4.24-2.151-5.426-2.048-1.175-4.54-1.361-6.88-1.6-5.03-.215-10.067-.222-15.098-.29-.119 10.166-.031 20.336-.044 30.504 5.385.035 10.77.01 16.149-.112 2.081-.105 4.241-.081 6.214-.766 1.367-.446 1.875-2.279 3.471-2.182 1.147.497.745 1.87.604 2.779-.911 4.199-.932 8.498-1.285 12.75-.063 1.153-1.838 1.573-2.375.502-.477-1.444-.069-3.052-.763-4.47-.499-1.59-2.162-2.539-3.828-2.841-2.435-.465-4.938-.421-7.404-.55-3.603-.091-7.207-.254-10.808-.189.068 8.314-.054 16.636-.025 24.953.071 2.652-.147 5.456 1.016 7.944.741 1.676 2.725 2.408 4.518 2.689 3.83.586 7.738.428 11.604.343 2.782-.231 5.837-.313 8.152-1.954 1.594-1.111 2.309-2.919 2.795-4.645.3-1.024.342-2.116.827-3.093.348-.678 1.611-.973 2.048-.224.503.807.329 1.787.273 2.672-.326 2.862-.71 5.724-1.223 8.559-.244 1.136-.554 2.367-1.483 3.201-1.072.871-2.593.816-3.923.874a535.404 535.404 0 0 1-25.314-.494c-5.419-.366-10.837.22-16.259.132-.829.018-1.998-.292-2.023-1.221-.122-.594.405-1.136 1.032-1.197 1.684-.277 3.678-.051 5.061-1.149 1.305-1.546 1.389-3.624 1.689-5.489.547-6.271.434-12.566.469-18.854-.014-13.041.012-26.077-.01-39.115-.071-2.557-.041-5.125-.381-7.667-.193-1.368-.892-2.799-2.311-3.403-1.916-.91-4.12-.833-6.202-1-.946-.062-1.439-1.25-.783-1.875.561-.564 1.443-.583 2.214-.591 4.271-.009 8.542.191 12.814.296 8.345-.006 16.693.034 25.038-.061 2.197-.106 4.479-.048 6.589-.714zM509.44 26.147c.102-.858 1.109-1.153 1.861-1.149 4.297-.059 8.586.193 12.882.278 3.5-.074 6.999-.292 10.502-.308.631.027 1.346.054 1.865.488.627.478.44 1.671-.356 1.882-1.821.436-4.008.115-5.47 1.483-1.471 1.597-1.322 3.926-1.484 5.931-.245 8.053-.133 16.115-.156 24.175 15.492.005 30.981.003 46.472.003-.027-7.861.088-15.723-.129-23.578-.207-2.136.071-4.688-1.598-6.341-1.79-1.457-4.271-1.409-6.466-1.538-.726.025-1.381-.605-1.285-1.326.132-.844 1.112-1.149 1.868-1.149 4.093-.017 8.183.178 12.271.281 3.604-.037 7.202-.278 10.811-.298.793.012 1.732-.012 2.315.629.506.609.122 1.653-.664 1.801-1.74.3-3.754.11-5.188 1.299-1.417 1.32-1.414 3.396-1.563 5.174-.314 7.269-.146 14.547-.193 21.82v25.535c.081 5.938-.044 11.896.604 17.799.204 1.713.594 3.794 2.357 4.612 2.261.857 4.794.45 7.093 1.047.614.363.654 1.302.133 1.764-.624.522-1.499.495-2.262.516-3.319-.041-6.64-.105-9.959-.225-4.652-.298-9.308.296-13.964.218-.664-.014-1.421-.133-1.827-.695-.428-.61-.119-1.57.645-1.727 1.42-.236 2.915-.163 4.269-.722 1.048-.479 1.424-1.658 1.716-2.669.719-2.997.739-6.104.885-9.168.214-9.325.119-18.656.129-27.987-15.489-.021-30.976-.017-46.465-.003-.003 8.812-.055 17.624.105 26.437.099 3.249.156 6.518.675 9.735.23 1.438.901 3.031 2.403 3.57 2.103.638 4.341.502 6.501.786 1.059.156 1.163 1.761.203 2.14-1.362.539-2.869.222-4.293.269-4.861.027-9.714-.481-14.57-.146-2.529.058-5.063.277-7.585.132-.892-.014-1.76-.861-1.363-1.757.384-.851 1.476-.678 2.245-.786 1.42-.155 3.262-.237 3.933-1.723.954-2.109 1.071-4.469 1.258-6.74.451-8.233.259-16.479.303-24.72 0-8.512 0-17.024.003-25.535-.026-4.207.061-8.418-.24-12.616-.146-1.532-.394-3.338-1.784-4.289-1.811-1.17-4.065-1.194-6.147-1.292-.712.009-1.424-.574-1.296-1.317zM600.254 25.783c.444-.709 1.435-.802 2.235-.807 4.231.034 8.464.165 12.691.31 7.609-.058 15.266-.775 22.845.209 4.686.591 9.345 2.039 13.126 4.745 4.255 3.301 7.106 8.194 7.517 13.353.234 5.134-1.133 10.315-3.899 14.764-2.539 4.225-6.019 7.891-9.786 11.203 6.891 8.213 13.669 16.521 21.034 24.377 3.092 3.285 6.452 6.5 10.688 8.501 3.108 1.519 6.646 1.997 10.117 2.037 1.078-.118 2.052 1.19 1.126 1.944-1.221.785-2.828.468-4.225.542-5.334-.115-10.773.396-16.008-.801-5.29-1.369-9.149-5.248-12.485-9.083-6.386-7.512-12.462-15.246-18.497-23.001-.516-.651-1.085-1.513-2.093-1.403-4.724-.048-9.45-.19-14.174-.174-.04 6.663-.017 13.326.152 19.986.112 2.661.177 5.347.716 7.972.292 1.366 1.038 2.868 2.584 3.323 2.248.609 4.632.458 6.932.793.959.258 1.033 1.621.162 2.034-1.079.516-2.339.319-3.496.34-4.12-.034-8.229-.177-12.343-.285-3.706.115-7.412.289-11.115.299-.59-.017-1.214-.055-1.686-.394-.796-.435-.657-1.702.225-1.974 1.682-.386 3.604-.102 5.124-1.01 1.301-1.116 1.454-2.9 1.766-4.422.691-5.186.519-10.424.645-15.636.017-13.193.003-26.393.007-39.586-.092-3.75.051-7.504-.285-11.244-.139-1.435-.494-3.065-1.858-3.932-1.973-1.238-4.452-1.165-6.721-1.327-.861-.031-1.421-.957-1.021-1.653zm21.868 4.023c-.743.075-1.794.282-1.658 1.189-.044 11.395.007 22.796-.021 34.193-.01.574-.007 1.334.688 1.585 2.377.983 5.021 1.156 7.582 1.417 3.835.204 7.968.488 11.485-1.255 3.776-1.945 5.842-5.8 6.862-9.557 1.278-5.152 1.21-10.64-.414-15.722-1.41-4.483-4.688-8.613-9.352-10.554-4.711-2.084-10.12-1.873-15.172-1.296zM145.489 24.801c.449-.839 1.702-.868 2.238-.097.883 1.194 1.278 2.66 1.858 4.013 6.637 17.392 13.164 34.829 19.896 52.186 2.009 5.076 3.82 10.243 6.119 15.2 1.312 2.605 2.823 5.324 5.349 6.904 1.614.889 3.465 1.269 5.288 1.332.578.058 1.261-.01 1.724.432.436.491.274 1.359-.295 1.682-.879.481-1.926.4-2.89.435-5.527-.041-11.06-.052-16.582-.272-.898-.102-1.991-.007-2.657-.742-.375-.79.29-1.435.948-1.732.941-.512.483-1.784.2-2.577-3.276-8.653-6.412-17.361-9.764-25.983-7.57.003-15.138-.014-22.705.01-.617-.122-.765.519-.924.96-2.053 6.147-4.124 12.291-6.169 18.441-.753 2.286-1.47 4.66-1.375 7.095.23 1.628 2.095 2.214 3.506 2.244.837.095 2.077-.162 2.494.808.346 1-.72 1.736-1.607 1.716-2.999.092-5.993-.269-8.994-.271-3.788.102-7.575.295-11.366.306-.875-.011-1.929-.014-2.52-.78-.431-.773.208-1.743 1.065-1.71 2.382-.155 5.017-.165 6.955-1.803 2.646-2.19 3.765-5.602 4.939-8.722 7.807-21.596 15.628-43.191 23.427-64.792.548-1.454.992-2.974 1.842-4.283zm-4.166 27.328c-1.993 6.188-3.989 12.376-5.983 18.566 6.614.003 13.229.003 19.843 0-3.428-9.81-6.797-19.643-10.288-29.429-1.307 3.58-2.368 7.247-3.572 10.863zM207.104 27.371c.141-1.029.385-2.404 1.553-2.762 1.221-.148 1.929.992 2.365 1.922 10.912 21.892 21.795 43.795 32.71 65.689 10.595-22.058 21.139-44.139 31.738-66.191.405-.99 1.706-1.958 2.719-1.104.804.895.795 2.187.977 3.308l6.759 60.451c.458 3.418.529 6.92 1.616 10.223.634 1.946 1.833 3.902 3.835 4.737 2.445.949 5.113 1.122 7.717 1.214.91-.095 1.446 1.064.856 1.705-.817.876-2.154.767-3.257.783-6.012-.148-12.032-.25-18.032-.698-.996-.162-2.458-.136-2.903-1.214-.353-.779.424-1.35 1.062-1.628.308-1.498.059-3.024-.069-4.522-1.657-17.354-3.306-34.709-4.961-52.065-9.254 19.112-18.421 38.264-27.693 57.368-.576.963-1.027 2.51-2.394 2.55-1.182-.061-1.665-1.322-2.216-2.149-4.21-7.612-8.069-15.398-12.068-23.112-4.454-8.688-8.528-17.55-12.734-26.35-1.121-2.467-2.338-4.886-3.435-7.36-1.195 13.43-2.363 26.864-3.55 40.295-.351 4.381-.941 8.759-.748 13.16.029 1.088.771 2.105 1.821 2.476 1.6.56 3.316.606 4.989.796.806.051 1.207 1.042.773 1.672-.448.607-1.263.764-1.979.777-4.5.095-8.998-.495-13.496-.204-2.105.054-4.209.265-6.315.19-.824-.021-1.972-.288-2.077-1.248-.168-.658.533-1.188 1.151-1.2 1.797-.197 3.895.007 5.343-1.255 1.433-1.462 1.688-3.588 1.934-5.507 2.675-23.58 5.341-47.163 8.009-70.747zM448.648 42.979c.361-.103.826-.346 1.173-.039.734.651.25 1.653.129 2.455-.476 1.897-.203 3.886-.641 5.789-.098.744-1.181 1.246-1.687.549-.538-1.119-.251-2.572-1.207-3.521-1.163-1.029-2.83-1.217-4.346-1.241-3.081-.041-7.738-.125-10.816-.149 0 6.389.005 13.749.005 20.135 3.989-.041 7.158-.027 11.149-.078.861-.021 1.74-.051 2.587-.261.873-.184 1.222-1.088 1.957-1.498.978-.241 1.283.888 1.049 1.587-.568 2.59-.561 5.245-.77 7.866-.019.807-1.202 1.177-1.677.509-.521-1.14-.156-2.604-1.121-3.567-.961-1.021-2.492-1.159-3.84-1.193-3.388-.092-5.953-.109-9.34-.13.012 6.605-.039 12.238.164 18.84.08 1.529.025 3.127.648 4.571.582 1.156 2.117 1.055 3.258 1.201.721.128 1.769-.13 2.172.644.232.62-.322 1.24-.971 1.274-3.744.211-7.492-.291-11.236-.034-1.421.034-2.845.156-4.255.038-.854.027-1.39-1.177-.627-1.645 1.049-.502 2.646.023 3.362-1.092.732-1.539.71-3.289.793-4.951.225-7.364.125-14.729.149-22.098-.023-6.022.059-12.046-.095-18.065-.104-1.032-.029-2.346-1.046-2.999-1.16-.836-2.696-.48-4.005-.827-.787-.314-.56-1.542.259-1.66 1.095-.183 2.218-.064 3.33-.074 6.179.225 13.938.108 20.125.124 1.785-.11 3.66.161 5.371-.46z"/>
    <path d="M390.001 44.183c6.58-.697 13.542.486 19.113 4.354 3.808 2.587 6.773 6.446 8.443 10.842 2.02 5.217 2.262 11.049 1.294 16.542-1.075 6.069-4.084 11.824-8.655 15.794-4.452 3.964-10.281 6.073-16.105 6.253-5.737.207-11.689-1.152-16.393-4.699-4.515-3.289-7.667-8.348-9.184-13.828-2.085-7.141-1.339-15.111 2.112-21.661 2.079-4.144 5.207-7.741 9.084-10.124 3.118-1.956 6.683-3.054 10.291-3.473zm4.785 4.2v45.035a22.337 22.337 0 0 0 2.967-.305V48.922a21.14 21.14 0 0 0-2.967-.539zm-2.816 44.96V48.259a19.15 19.15 0 0 0-2.967.29v44.304c.976.236 1.972.399 2.967.49zm-5.783-1.41v-42.64c-6.066 2.165-10.242 7.56-11.235 14.895-.701 5.138-.351 10.476 1.248 15.402 1.402 4.438 3.864 8.863 7.741 11.207.722.437 1.473.811 2.246 1.136zm14.382-42.057v42.559c2.585-.808 4.852-2.079 6.459-3.689 3.442-4.015 4.768-9.512 5.012-14.777.348-6.559-.817-13.518-4.657-18.882-1.509-2.111-3.881-3.966-6.814-5.211z"/>
  </g>
</svg>
